<svg fill="#ffffff" role="img" viewBox="0 0 24 24" xmlns="http://www.w3.org/2000/svg"><title>Amazon</title><path d="M13.958 10.09c0 1.232.029 2.256-.591 3.351-.502.891-1.301 1.438-2.186 1.438-1.214 0-1.922-.924-1.922-2.292 0-2.692 2.415-3.182 4.7-3.182v.685zm3.186 7.705c-.209.189-.512.201-.745.074-1.047-.872-1.234-1.276-1.814-2.106-1.734 1.767-2.962 2.297-5.209 2.297-2.66 0-4.731-1.641-4.731-4.925 0-2.565 1.391-4.309 3.37-5.164 1.715-.754 4.11-.891 5.942-1.095V6.41c0-.677.051-1.475-.341-2.06-.341-.525-.995-.741-1.57-.741-1.067 0-2.019.547-2.252 1.68-.047.254-.231.505-.484.517l-2.712-.293c-.228-.051-.481-.236-.416-.587C7.53 2.386 10.235 1.5 12.67 1.5c1.241 0 2.863.33 3.843 1.271 1.241 1.161 1.122 2.71 1.122 4.395v3.979c0 1.197.496 1.723.963 2.369.165.23.201.505-.008.677-.521.436-1.449 1.244-1.959 1.698l-.487-.094zm3.07 1.677c-2.957 1.979-7.243 3.031-10.929 3.031-5.17 0-9.824-1.912-13.34-5.091-.277-.25-.029-.592.303-.397 3.799 2.211 8.494 3.544 13.344 3.544 3.271 0 6.867-.678 10.178-2.083.499-.212.919.328.444.996zm1.272-1.452c-.378-.484-2.494-.228-3.447-.115-.289.035-.333-.217-.073-.399 1.689-1.188 4.459-.845 4.782-.447.324.4-.085 3.17-1.667 4.493-.243.205-.474.096-.366-.174.356-.888 1.154-2.875.771-3.358z"/></svg>
